<svg width="39" height="39" viewBox="0 0 39 39" fill="none" xmlns="http://www.w3.org/2000/svg">
  <circle cx="19.5" cy="19.5" r="19.5" fill="white"/>
  <path d="M19.5 11C15.36 11 12 14.36 12 18.5C12 21.77 14.17 24.52 17.19 25.41C17.58 25.48 17.72 25.24 17.72 25.03C17.72 24.84 17.71 24.27 17.71 23.61C15.75 24.01 15.32 22.8 15.32 22.8C14.97 21.92 14.43 21.69 14.43 21.69C13.68 21.17 14.49 21.18 14.49 21.18C15.31 21.24 15.75 22.02 15.75 22.02C16.48 23.3 17.7 22.93 18.18 22.73C18.25 22.2 18.47 21.84 18.71 21.63C17.04 21.43 15.29 20.8 15.29 18.21C15.29 17.46 15.56 16.84 16.02 16.37C15.94 16.17 15.66 15.4 16.09 14.3C16.09 14.3 16.66 14.11 17.71 14.87C18.25 14.72 18.83 14.65 19.41 14.65C19.99 14.65 20.57 14.72 21.11 14.87C22.16 14.11 22.73 14.3 22.73 14.3C23.16 15.4 22.88 16.17 22.8 16.37C23.27 16.84 23.54 17.46 23.54 18.21C23.54 20.81 21.78 21.42 20.1 21.62C20.39 21.87 20.64 22.34 20.64 23.05C20.64 24.05 20.63 24.78 20.63 25.03C20.63 25.24 20.77 25.48 21.17 25.4C24.19 24.51 26.36 21.76 26.36 18.5C26.36 14.36 23.14 11 19.5 11Z" fill="#293647"/>
</svg>
