<svg width="39" height="39" viewBox="0 0 39 39" fill="none" xmlns="http://www.w3.org/2000/svg">
  <circle cx="19.5" cy="19.5" r="19.5" fill="white"/>
  <path d="M14.5 27V16.5H11V27H14.5ZM12.75 15.1C13.8 15.1 14.5 14.35 14.5 13.45C14.5 12.5 13.8 11.8 12.75 11.8C11.7 11.8 11 12.5 11 13.45C11 14.35 11.7 15.1 12.75 15.1ZM28 27V20.5C28 17.5 26.4 16 24.2 16C22.7 16 21.95 16.8 21.55 17.4V16.5H18.1C18.15 17.3 18.1 27 18.1 27H21.55V21.2C21.55 20.9 21.6 20.6 21.7 20.4C22 19.8 22.55 19.2 23.4 19.2C24.55 19.2 25.05 20.1 25.05 21.4V27H28Z" fill="#293647"/>
</svg>
